<svg width="43" height="45" viewBox="0 0 43 45" fill="none" xmlns="http://www.w3.org/2000/svg">
<path d="M27.6949 7.0792C28.8953 5.89779 30.5095 5.24075 32.1876 5.2506C33.8657 5.26044 35.4722 5.93638 36.6588 7.13179C37.8454 8.32721 38.5164 9.94571 38.5262 11.6363C38.5359 13.3268 37.8837 14.9531 36.711 16.1623L35.2773 17.6067L26.2612 8.52361L27.6971 7.0792H27.6949ZM24.746 10.0522L7.60318 27.3225C6.9017 28.03 6.41479 28.9242 6.19944 29.9004L4.31778 38.4286C4.27842 38.6061 4.28419 38.7906 4.33455 38.9652C4.38491 39.1398 4.47823 39.2988 4.60584 39.4274C4.73346 39.5559 4.89125 39.6499 5.06456 39.7007C5.23787 39.7514 5.42109 39.7572 5.59722 39.7176L14.0111 37.8327C15.0129 37.6081 15.9303 37.1002 16.6557 36.3689L17.5944 35.4211C17.0212 33.3871 16.9975 31.2359 17.5256 29.1896C18.0538 27.1434 19.1147 25.2763 20.5987 23.7812C22.0827 22.2862 23.936 21.2174 25.9672 20.6854C27.9984 20.1533 30.1337 20.1772 32.1526 20.7546L33.7621 19.1353L24.746 10.0501V10.0522ZM23.7237 25.5844C23.878 26.1386 23.9208 26.7184 23.8495 27.2895C23.7782 27.8606 23.5943 28.4116 23.3085 28.91C23.0228 29.4085 22.641 29.8444 22.1857 30.1921C21.7303 30.5397 21.2105 30.7922 20.6569 30.9346L19.6689 31.1893C19.5975 31.9192 19.6047 32.6546 19.6904 33.3829L20.4405 33.5621C21.0087 33.6975 21.5434 33.9484 22.0119 34.2994C22.4805 34.6504 22.8728 35.0942 23.165 35.6034C23.4572 36.1127 23.643 36.6767 23.7111 37.2609C23.7792 37.8451 23.728 38.4372 23.5609 39.0008L23.2887 39.9119C23.8395 40.3523 24.4395 40.728 25.0782 41.0303L25.7747 40.2876C26.1757 39.8598 26.6592 39.5191 27.1956 39.2864C27.7319 39.0537 28.3099 38.9339 28.8939 38.9343C29.4779 38.9347 30.0556 39.0553 30.5917 39.2888C31.1277 39.5222 31.6108 39.8636 32.0112 40.2919L32.7334 41.0648C33.3592 40.7733 33.9507 40.4128 34.4951 39.9896L34.1607 38.7892C34.0061 38.235 33.963 37.6552 34.034 37.0839C34.105 36.5127 34.2886 35.9615 34.5742 35.4628C34.8597 34.9641 35.2414 34.528 35.6967 34.1801C36.152 33.8322 36.6717 33.5795 37.2254 33.4369L38.2112 33.1843C38.2829 32.4537 38.2757 31.7175 38.1898 30.9885L37.444 30.8115C36.8755 30.6762 36.3406 30.4252 35.8719 30.074C35.4032 29.7229 35.0107 29.2789 34.7185 28.7694C34.4263 28.2599 34.2405 27.6956 34.1726 27.1111C34.1047 26.5267 34.1561 25.9344 34.3236 25.3707L34.5936 24.4617C34.0414 24.0208 33.441 23.6449 32.8041 23.3412L32.1076 24.0839C31.7068 24.5118 31.2234 24.8526 30.6871 25.0855C30.1508 25.3184 29.5729 25.4384 28.9889 25.4382C28.4049 25.438 27.8271 25.3176 27.291 25.0843C26.7548 24.8511 26.2717 24.5099 25.8711 24.0817L25.1489 23.3088C24.5246 23.5995 23.9345 23.9594 23.3894 24.3818L23.7237 25.5844ZM28.9379 34.3415C28.3696 34.3415 27.8244 34.1141 27.4225 33.7092C27.0206 33.3043 26.7948 32.7551 26.7948 32.1825C26.7948 31.6099 27.0206 31.0607 27.4225 30.6558C27.8244 30.2509 28.3696 30.0234 28.9379 30.0234C29.5063 30.0234 30.0514 30.2509 30.4534 30.6558C30.8553 31.0607 31.0811 31.6099 31.0811 32.1825C31.0811 32.7551 30.8553 33.3043 30.4534 33.7092C30.0514 34.1141 29.5063 34.3415 28.9379 34.3415Z" fill="url(#paint0_linear_10_108)"/>
<defs>
<linearGradient id="paint0_linear_10_108" x1="9.6411" y1="11.2195" x2="34.1693" y2="33.2447" gradientUnits="userSpaceOnUse">
<stop stop-color="#E55D87"/>
<stop offset="1" stop-color="#A06EF3"/>
</linearGradient>
</defs>
</svg>
